# xmcd
#
# Track frame offsets:
#	150
#	12425
#	27915
#	43818
#	61063
#	75153
#	84883
#	107995
#	123715
#	134990
#	148790
#	161383
#	176588
#	195815
#	213138
#	229343
#
# Disc length: 3272 seconds
#
# Revision: 2
# Processed by: cddbd v1.5.2PL0 Copyright (c) Steve Scherf et al.
# Submitted via: EZCDAudioConverter 8.3.2.1
#
DISCID=d30cc610
DTITLE=Various Artist - AKTUELL COUNTRY 2
DYEAR=1997
DGENRE=Country
TTITLE0=KIKKI DANIELSSON - 9 TO 5
TTITLE1=MATS RÅDBERG and RANKARNA - PETA IN EN PINNE I BRASAN
TTITLE2=ALF ROBERTSSON - HUNDAR, UNGAR OCH HEMBRYGGT ÄPPELVIN
TTITLE3=ELISABETH ANDREASSON - TOGETHER AGAIN
TTITLE4=MATS RÅDBERG and RANKARNA - EARLY MORNING TRAIN
TTITLE5=KIKKI DANIELSSON - COWBOY YODDLE SONG
TTITLE6=HASSE ANDERSSON - ÄNGLAHUND
TTITLE7=ANNE KIHLSTRÖM - FÖRGÄT MIG EJ
TTITLE8=ALF ROBERTSSON - JAG ÄR MIN FARSAS FAR
TTITLE9=CARINA WESSMAN - JAG ÄLSKAR DIG ÄNNU
TTITLE10=MATS RÅDBERG and RANKARNA - SÄG ALDRIG NEJ TILL EN GRABB MED GITARR
TTITLE11=ELISABETH ANDREASSON - MORNING TRAIN
TTITLE12=MATS RÅDBERG and RANKARNA - DET ÄR INTE LÄTT ATT VA' ÖDMJUK
TTITLE13=KIKKI DANIELSSON - U.S OF AMERICA
TTITLE14=ANN-LOUISE HANSSON - DON'T DARKEN MY DOORSTEP
TTITLE15=MATS RÅDBERG and ELISABETH ANDREASSON - HELP ME MAKE IT THROUGH THE NIG
TTITLE15=HT
EXTD=
EXTT0=
EXTT1=
EXTT2=
EXTT3=
EXTT4=
EXTT5=
EXTT6=
EXTT7=
EXTT8=
EXTT9=
EXTT10=
EXTT11=
EXTT12=
EXTT13=
EXTT14=
EXTT15=
PLAYORDER=
